<?xml version="1.0" encoding="utf-8"?>
<!-- Generator: Adobe Illustrator 19.2.1, SVG Export Plug-In . SVG Version: 6.00 Build 0)  -->
<svg version="1.1" id="layer" xmlns="http://www.w3.org/2000/svg" xmlns:xlink="http://www.w3.org/1999/xlink" x="0px" y="0px"
	 viewBox="0 0 652 652" style="enable-background:new 0 0 652 652;" xml:space="preserve">
<style type="text/css">
	.st0{fill:#FFD900;}
	.st1{fill:#006FBC;}
</style>
<rect x="14.8" y="241.7" class="st0" width="623.6" height="170.3"/>
<g>
	<path class="st1" d="M141.9,277.9h-16.5l9.7,22.6l6.8-6.6l16.4-16H141.9z M141.9,309.9h-18.4L79,373.7H39.6l15.8-68.2
		c6.5-22,25.2-36.2,49.4-36.5h37.1h44.5l-19,75.1c-5.5,14.1-14.2,23.2-25.5,27.3c-4.5,1.3-9,2.2-13.9,2.2l13.9-52.8l2.9-11H141.9z"
		/>
	<path class="st1" d="M450.6,325l-12.6,48.7h17.7c2.6-13.2,9-28.9,13.2-33c0,0,3.9-5,7.4-4.7c1.3,0.3,1,0,1,1.9l-9,36.1h18l8.1-31.4
		c1-4.1,1.3-6.9,1.3-9.1c0-7.5-5.8-9.7-11-9.7c-11.3,0-16.1,3.5-18.7,6.6l1.6-5.3H450.6z M351,325l-12.2,48.7h17.7
		c1.9-10.1,6.1-20.4,9.4-26.4c1.9-3.8,8.1-10.1,12.6-10.1c1,0,3.5,0.3,4.2,0.6l2.9-13.5c-0.6,0-4.5-0.3-5.2-0.3
		c-7.1,0-11.6,3.8-13.9,6.3l1.3-5.3H351z M319.3,325l-12.3,48.7h19l12.3-48.7H319.3z M230.6,309.3l-16.2,64.4h19.7l16.5-64.4H230.6z
		"/>
	<path class="st1" d="M276.8,342.3l-0.3,0.3c-3.2,4.7-7.1,11.9-10,21.4h3.2c2.6,0.3,4.8-0.9,7.1-2.8c6.4-5.7,10-17.9,10.3-21.7
		c0-1.3,0.6-3.8-2.6-3.8C282.9,335.7,279.3,338.5,276.8,342.3 M276.8,373.7c-2.3,0.6-4.2,0.6-5.2,0.6c-3.2,0-5.2,0-6.8-0.6
		l-3.9,16.3h-18.7l16.8-65h17.1l-1,5.7c0.3-0.6,1-1.3,1.6-1.9c2.9-2.8,8.7-4.7,16.4-4.7c7.4,0,12.6,4.7,12.6,13.5
		c0,7.2-3.9,17.6-10,25.1C289.3,369.9,281.9,372.8,276.8,373.7"/>
	<path class="st1" d="M408.1,337.3c-6.5,5.7-10,17.3-10,22c0,3.4,2.9,3.8,3.5,3.8c3.2,0,6.2-3.8,6.5-5c1-2.2,6.8-11,10.3-23.9h-3.2
		C412.3,334.1,410,335.4,408.1,337.3 M408.1,369.9c-3.9,2.5-6.5,4.4-14.2,4.4c-9,0-13.9-7.9-13.9-13.5c0-11.9,8.7-30.5,28.1-35.5
		c3.2-0.9,6.8-1.5,10.6-1.5c9.4,0,16.5,2.2,19,3.4l-11.6,46.5h-16.8l1.6-5.7C409.7,368.7,408.7,369.3,408.1,369.9"/>
	<path class="st1" d="M526.5,337.3c-6.5,5.7-10,17.3-10,22.3c0,2.2,1.6,3.1,2.3,3.1c2.3,0,7.1-3.8,7.7-4.7c1.6-2.5,6.8-11.3,10-23.9
		h-2.9C530.6,334.1,528.4,335.4,526.5,337.3 M526.5,369.9c-5.5,3.5-7.7,4.4-14.2,4.4c-8.4,0-13.9-7.6-13.9-13.5
		c0-11.7,10.6-29.9,28.1-35.2c3.2-1.3,6.8-1.9,10.6-1.9h20.3l-13.9,49.9c-2.9,10.4-9.7,15.1-17.1,17c-11.6,3.2-23.9-0.3-24.2-0.6
		l2.9-9.4c12.3,2.5,18,1.3,20.3-6.9l1-2.8V369.9z"/>
	<path class="st1" d="M583.5,337.3c-6.4,5.3-10,17.3-10,22c0,3.4,2.9,4.1,3.5,4.1c3.2,0,6.1-4.1,6.4-5.3c1.3-2.2,6.8-11,10-23.9
		h-3.2C587.8,334.1,585.5,335.4,583.5,337.3 M583.5,369.9c-3.6,2.5-6.1,4.7-13.9,4.4c-8.4,0-14.2-7.6-14.2-13.5
		c0-11.9,8.7-30.5,28.1-35.5c3.2-0.9,6.8-1.5,10.7-1.5c9.7,0,16.1,2.2,19.3,3.4l-12.2,46.5h-16.2l1.3-5.7
		C585.2,368.7,584.2,369.3,583.5,369.9"/>
</g>
</svg>
