<?xml version="1.0" encoding="UTF-8" standalone="no"?>
<!-- Generator: Adobe Illustrator 16.0.0, SVG Export Plug-In . SVG Version: 6.00 Build 0)  -->

<svg
   xmlns:dc="http://purl.org/dc/elements/1.1/"
   xmlns:cc="http://creativecommons.org/ns#"
   xmlns:rdf="http://www.w3.org/1999/02/22-rdf-syntax-ns#"
   xmlns:svg="http://www.w3.org/2000/svg"
   xmlns="http://www.w3.org/2000/svg"
   xmlns:sodipodi="http://sodipodi.sourceforge.net/DTD/sodipodi-0.dtd"
   xmlns:inkscape="http://www.inkscape.org/namespaces/inkscape"
   version="1.1"
   id="Primary_Logo"
   x="0px"
   y="0px"
   width="110"
   height="85"
   viewBox="0 0 110 85.000004"
   enable-background="new 0 0 168.868 143.456"
   xml:space="preserve"
   inkscape:version="0.48.4 r9939"
   sodipodi:docname="w-Thyssenkrupp_AG_Logo_2015.svg"><metadata
     id="metadata15"><rdf:RDF><cc:Work
         rdf:about=""><dc:format>image/svg+xml</dc:format><dc:type
           rdf:resource="http://purl.org/dc/dcmitype/StillImage" /></cc:Work></rdf:RDF></metadata><defs
     id="defs13" /><sodipodi:namedview
     pagecolor="#ffffff"
     bordercolor="#666666"
     borderopacity="1"
     objecttolerance="10"
     gridtolerance="10"
     guidetolerance="10"
     inkscape:pageopacity="0"
     inkscape:pageshadow="2"
     inkscape:window-width="1821"
     inkscape:window-height="1350"
     id="namedview11"
     showgrid="false"
     fit-margin-top="0"
     fit-margin-left="0"
     fit-margin-right="0"
     fit-margin-bottom="0"
     inkscape:zoom="8.0163956"
     inkscape:cx="47.350327"
     inkscape:cy="41.901443"
     inkscape:window-x="1792"
     inkscape:window-y="21"
     inkscape:window-maximized="1"
     inkscape:current-layer="Primary_Logo" /><polyline
     points="0,143.456 168.868,143.456 168.868,0 0,0 "
     id="polyline3"
     style="fill:none"
     transform="translate(-34.222002,-26.300011)" /><g
     id="g5"
     transform="translate(-29.107484,-30.29183)"><path
       d="m 102.23,52.858 c -0.157,-9.635 -8.038,-17.425 -17.709,-17.425 -9.671,0 -17.552,7.791 -17.709,17.425 -6.255,2.738 -10.637,8.983 -10.637,16.236 0,9.769 7.947,17.716 17.716,17.716 3.985,0 7.667,-1.324 10.63,-3.553 2.963,2.229 6.645,3.553 10.63,3.553 9.769,0 17.717,-7.948 17.717,-17.716 -10e-4,-7.252 -4.384,-13.498 -10.638,-16.236 z M 91.529,67.467 c -0.41,-4.474 -2.488,-8.471 -5.608,-11.363 1.843,-1.313 3.974,-2.244 6.28,-2.677 1.565,2.944 3.007,6.519 4.284,10.244 -1.38,1.569 -3.062,2.866 -4.956,3.796 z m -7.008,13.499 c -3.035,-2.72 -5.023,-6.583 -5.283,-10.905 1.669,0.522 3.444,0.805 5.283,0.805 1.839,0 3.614,-0.282 5.283,-0.805 -0.261,4.323 -2.249,8.185 -5.283,10.905 z M 72.556,63.672 c 1.277,-3.725 2.718,-7.3 4.284,-10.244 2.306,0.433 4.438,1.364 6.28,2.677 -3.12,2.892 -5.199,6.889 -5.608,11.363 -1.894,-0.931 -3.575,-2.228 -4.956,-3.796 z m -1.295,-1.679 c -1.537,-2.297 -2.493,-5.014 -2.658,-7.938 1.656,-0.584 3.435,-0.905 5.288,-0.905 0.365,0 0.725,0.017 1.083,0.041 -1.262,2.438 -2.5,5.371 -3.713,8.802 z m 6.494,-10.185 c 2.089,-3.479 4.373,-5.745 6.766,-5.745 2.393,0 4.677,2.266 6.766,5.745 -2.492,0.557 -4.79,1.636 -6.766,3.123 -1.977,-1.487 -4.273,-2.567 -6.766,-3.123 z m 6.766,17.286 c -1.853,0 -3.632,-0.321 -5.288,-0.905 0.245,-4.347 2.238,-8.234 5.288,-10.967 3.049,2.733 5.043,6.62 5.288,10.967 -1.657,0.584 -3.435,0.905 -5.288,0.905 z M 94.067,53.19 c 0.358,-0.024 0.719,-0.041 1.083,-0.041 1.854,0 3.632,0.321 5.288,0.905 -0.165,2.925 -1.121,5.642 -2.658,7.938 -1.212,-3.43 -2.451,-6.363 -3.713,-8.802 z M 84.521,37.205 c 8.467,0 15.411,6.635 15.913,14.978 -1.669,-0.522 -3.444,-0.805 -5.283,-0.805 -0.68,0 -1.35,0.042 -2.01,0.117 -2.776,-4.788 -5.658,-7.204 -8.62,-7.204 -2.961,0 -5.844,2.416 -8.62,7.204 -0.66,-0.075 -1.33,-0.117 -2.01,-0.117 -1.839,0 -3.613,0.282 -5.283,0.805 0.502,-8.344 7.446,-14.978 15.913,-14.978 z m -26.575,31.89 c 0,-6.279 3.649,-11.719 8.936,-14.318 0.318,3.473 1.643,6.657 3.679,9.262 -0.032,0.097 -0.064,0.19 -0.096,0.287 -2.547,7.735 -4.249,15.547 -4.835,18.402 -4.604,-2.8 -7.684,-7.864 -7.684,-13.633 z M 73.891,85.04 c -2.366,0 -4.61,-0.522 -6.631,-1.45 0.861,-4.412 2.489,-11.314 4.659,-18.003 1.573,1.594 3.444,2.89 5.523,3.8 0.082,5.011 2.251,9.522 5.679,12.699 -2.608,1.856 -5.792,2.954 -9.23,2.954 z m 12.03,-2.956 c 3.427,-3.177 5.597,-7.688 5.679,-12.699 2.079,-0.91 3.951,-2.206 5.524,-3.8 2.169,6.689 3.797,13.591 4.659,18.003 -2.021,0.928 -4.266,1.45 -6.632,1.45 -3.439,0.002 -6.623,-1.096 -9.23,-2.954 z m 17.491,0.644 c -0.586,-2.855 -2.289,-10.667 -4.835,-18.402 -0.032,-0.097 -0.064,-0.19 -0.097,-0.287 2.037,-2.604 3.361,-5.789 3.679,-9.262 5.288,2.599 8.937,8.039 8.937,14.318 0,5.769 -3.081,10.833 -7.684,13.633 z"
       id="path7"
       inkscape:connector-curvature="0"
       style="fill:#0095d8" /><path
       d="m 128.771,106.601 c -0.252,-0.11 -0.468,-0.266 -0.646,-0.468 -0.178,-0.202 -0.316,-0.444 -0.415,-0.726 -0.098,-0.282 -0.147,-0.595 -0.147,-0.94 v -2.263 c 0,-0.38 0.058,-0.714 0.174,-1.002 0.116,-0.288 0.269,-0.529 0.458,-0.722 0.19,-0.193 0.412,-0.337 0.664,-0.432 0.252,-0.095 0.512,-0.142 0.779,-0.142 0.285,0 0.551,0.052 0.797,0.156 0.246,0.104 0.449,0.264 0.606,0.481 0.157,0.217 0.28,0.498 0.37,0.842 0.065,0.255 0.111,0.547 0.138,0.873 0.026,0.327 0.04,0.674 0.04,1.042 0,0.285 -0.014,0.603 -0.04,0.953 -0.027,0.351 -0.061,0.639 -0.103,0.864 -0.101,0.517 -0.3,0.92 -0.597,1.212 -0.297,0.291 -0.712,0.436 -1.247,0.436 -0.301,0.001 -0.578,-0.054 -0.831,-0.164 m -1.207,4.478 v -3.93 c 0.137,0.178 0.319,0.362 0.548,0.552 0.229,0.19 0.51,0.34 0.846,0.45 0.336,0.11 0.732,0.165 1.189,0.165 0.374,0 0.754,-0.062 1.141,-0.187 0.386,-0.125 0.73,-0.343 1.033,-0.655 0.303,-0.312 0.541,-0.703 0.713,-1.171 0.136,-0.362 0.237,-0.789 0.303,-1.279 0.065,-0.49 0.098,-1.064 0.098,-1.724 0,-0.742 -0.042,-1.395 -0.125,-1.956 -0.083,-0.561 -0.229,-1.053 -0.437,-1.475 -0.511,-1.009 -1.41,-1.514 -2.699,-1.514 -0.636,0 -1.171,0.129 -1.608,0.388 -0.437,0.258 -0.789,0.602 -1.056,1.029 l -0.044,-1.131 h -1.693 v 12.438 h 1.791 z m -7.95,-4.478 c -0.252,-0.11 -0.468,-0.266 -0.646,-0.468 -0.179,-0.202 -0.316,-0.444 -0.415,-0.726 -0.099,-0.282 -0.147,-0.595 -0.147,-0.94 v -2.263 c 0,-0.38 0.058,-0.714 0.173,-1.002 0.116,-0.288 0.269,-0.529 0.459,-0.722 0.19,-0.193 0.411,-0.337 0.663,-0.432 0.252,-0.095 0.513,-0.142 0.78,-0.142 0.285,0 0.551,0.052 0.797,0.156 0.246,0.104 0.448,0.264 0.606,0.481 0.157,0.217 0.28,0.498 0.37,0.842 0.065,0.255 0.111,0.547 0.138,0.873 0.027,0.327 0.04,0.674 0.04,1.042 0,0.285 -0.013,0.603 -0.04,0.953 -0.027,0.351 -0.061,0.639 -0.103,0.864 -0.101,0.517 -0.3,0.92 -0.597,1.212 -0.297,0.291 -0.712,0.436 -1.247,0.436 -0.3,0.001 -0.578,-0.054 -0.831,-0.164 m -1.207,4.478 v -3.93 c 0.136,0.178 0.319,0.362 0.548,0.552 0.229,0.19 0.511,0.34 0.846,0.45 0.336,0.11 0.732,0.165 1.189,0.165 0.375,0 0.754,-0.062 1.14,-0.187 0.386,-0.125 0.731,-0.343 1.034,-0.655 0.303,-0.312 0.541,-0.703 0.712,-1.171 0.137,-0.362 0.238,-0.789 0.303,-1.279 0.066,-0.49 0.099,-1.064 0.099,-1.724 0,-0.742 -0.042,-1.395 -0.125,-1.956 -0.083,-0.561 -0.229,-1.053 -0.437,-1.475 -0.511,-1.009 -1.411,-1.514 -2.699,-1.514 -0.636,0 -1.172,0.129 -1.608,0.388 -0.437,0.258 -0.789,0.602 -1.056,1.029 l -0.045,-1.131 h -1.692 v 12.438 h 1.791 z m -6.497,-3.168 c 0.46,-0.27 0.851,-0.628 1.171,-1.073 l 0.018,1.185 h 1.692 V 98.642 H 113 v 5.532 c 0,0.315 -0.068,0.661 -0.205,1.038 -0.137,0.377 -0.379,0.711 -0.726,1.002 -0.347,0.291 -0.741,0.436 -1.18,0.436 -0.535,0 -0.933,-0.135 -1.194,-0.405 -0.261,-0.27 -0.392,-0.693 -0.392,-1.27 v -6.334 h -1.791 v 6.824 c 0,0.546 0.08,1.002 0.24,1.368 0.161,0.365 0.37,0.658 0.628,0.877 0.258,0.22 0.549,0.376 0.873,0.468 0.324,0.092 0.648,0.138 0.975,0.138 0.662,0 1.221,-0.135 1.682,-0.405 m -8.539,0.111 v -4.321 c 0,-0.392 0.05,-0.846 0.151,-1.363 0.101,-0.517 0.346,-0.97 0.735,-1.359 0.389,-0.389 0.913,-0.583 1.572,-0.583 0.22,0 0.383,0.012 0.49,0.036 v -1.809 h -0.231 c -0.606,0 -1.152,0.176 -1.639,0.526 -0.487,0.35 -0.874,0.84 -1.158,1.47 l -0.018,-1.978 h -1.692 v 9.381 h 1.79 z m -8.65,0 v -3.76 l 1.238,-1.256 2.458,5.016 h 2.031 l -3.181,-6.352 2.976,-3.029 h -2.129 l -3.394,3.465 v -6.78 h -1.79 v 12.696 h 1.791 z m -9.36,0 v -5.533 c 0,-0.32 0.07,-0.673 0.209,-1.06 0.14,-0.386 0.381,-0.721 0.726,-1.006 0.344,-0.285 0.742,-0.428 1.194,-0.428 0.534,0 0.923,0.137 1.167,0.41 0.243,0.273 0.365,0.694 0.365,1.265 v 6.352 h 1.791 v -6.824 c 0,-0.552 -0.1,-1.051 -0.298,-1.497 -0.199,-0.445 -0.505,-0.781 -0.918,-1.007 -0.413,-0.225 -0.895,-0.338 -1.447,-0.338 -0.665,0 -1.229,0.134 -1.693,0.401 -0.463,0.268 -0.855,0.624 -1.176,1.069 L 85.263,98.641 H 83.57 v 9.381 h 1.791 z m -9.1,-6.802 c 0.104,-0.359 0.242,-0.645 0.414,-0.855 0.172,-0.21 0.377,-0.359 0.615,-0.445 0.237,-0.086 0.499,-0.129 0.784,-0.129 0.303,0 0.604,0.059 0.904,0.178 0.3,0.119 0.541,0.392 0.722,0.819 0.181,0.427 0.272,1.021 0.272,1.782 h -3.884 c 0.011,-0.541 0.069,-0.99 0.173,-1.35 m 3.367,6.891 c 0.46,-0.136 0.85,-0.346 1.167,-0.628 0.317,-0.282 0.589,-0.637 0.815,-1.064 l -1.417,-0.73 c -0.077,0.13 -0.19,0.282 -0.338,0.454 -0.148,0.172 -0.361,0.322 -0.637,0.45 -0.276,0.128 -0.589,0.192 -0.94,0.192 -0.327,0 -0.625,-0.042 -0.895,-0.125 -0.271,-0.083 -0.503,-0.226 -0.7,-0.428 -0.196,-0.202 -0.347,-0.472 -0.454,-0.811 -0.107,-0.339 -0.161,-0.76 -0.161,-1.265 v -0.258 h 5.657 v -0.98 c 0,-0.422 -0.021,-0.864 -0.062,-1.328 -0.041,-0.464 -0.138,-0.896 -0.29,-1.296 -0.151,-0.401 -0.375,-0.756 -0.672,-1.065 -0.268,-0.267 -0.603,-0.479 -1.007,-0.637 -0.404,-0.157 -0.903,-0.236 -1.497,-0.236 -0.641,0 -1.185,0.082 -1.63,0.245 -0.445,0.164 -0.82,0.403 -1.123,0.718 -0.226,0.226 -0.429,0.518 -0.61,0.877 -0.181,0.36 -0.319,0.826 -0.414,1.399 -0.095,0.573 -0.143,1.219 -0.143,1.938 0,0.552 0.03,1.05 0.089,1.492 0.06,0.443 0.164,0.851 0.312,1.225 0.25,0.647 0.658,1.154 1.225,1.519 0.567,0.365 1.314,0.548 2.241,0.548 0.529,-10e-4 1.024,-0.069 1.484,-0.206 m -9.203,0.112 c 0.306,-0.062 0.576,-0.144 0.811,-0.245 0.235,-0.101 0.437,-0.212 0.606,-0.334 0.169,-0.121 0.301,-0.245 0.396,-0.369 0.184,-0.232 0.333,-0.482 0.445,-0.753 0.113,-0.27 0.169,-0.61 0.169,-1.021 0,-0.344 -0.039,-0.638 -0.116,-0.881 -0.078,-0.244 -0.167,-0.449 -0.268,-0.615 -0.143,-0.214 -0.348,-0.429 -0.615,-0.646 -0.267,-0.217 -0.79,-0.444 -1.568,-0.682 -0.392,-0.113 -0.739,-0.226 -1.042,-0.338 -0.303,-0.113 -0.56,-0.233 -0.771,-0.361 -0.211,-0.128 -0.37,-0.268 -0.477,-0.419 -0.106,-0.151 -0.16,-0.325 -0.16,-0.521 0,-0.404 0.127,-0.709 0.383,-0.917 0.154,-0.137 0.341,-0.232 0.561,-0.285 0.22,-0.054 0.478,-0.081 0.775,-0.081 0.439,0 0.811,0.094 1.114,0.281 0.303,0.187 0.541,0.477 0.712,0.869 l 1.435,-0.695 C 72.56,99.586 72.153,99.122 71.594,98.816 71.036,98.51 70.35,98.357 69.536,98.357 c -0.458,0 -0.898,0.057 -1.323,0.169 -0.425,0.113 -0.782,0.279 -1.07,0.499 -0.288,0.22 -0.506,0.475 -0.654,0.766 -0.131,0.231 -0.222,0.472 -0.272,0.721 -0.05,0.25 -0.076,0.479 -0.076,0.686 0,0.238 0.036,0.489 0.107,0.753 0.072,0.265 0.193,0.506 0.366,0.726 0.136,0.172 0.332,0.352 0.587,0.539 0.255,0.187 0.576,0.355 0.962,0.503 l 1.372,0.507 c 0.243,0.095 0.491,0.196 0.744,0.303 0.253,0.107 0.453,0.251 0.602,0.432 0.148,0.181 0.223,0.423 0.223,0.726 0,0.208 -0.047,0.385 -0.143,0.53 -0.095,0.145 -0.223,0.263 -0.383,0.352 -0.16,0.089 -0.347,0.153 -0.561,0.191 -0.214,0.039 -0.442,0.058 -0.686,0.058 -0.267,0 -0.505,-0.033 -0.712,-0.098 -0.208,-0.065 -0.395,-0.156 -0.562,-0.271 -0.167,-0.115 -0.312,-0.251 -0.437,-0.405 -0.125,-0.155 -0.235,-0.324 -0.33,-0.508 l -1.479,0.659 c 0.119,0.315 0.282,0.6 0.49,0.855 0.208,0.255 0.457,0.476 0.748,0.659 0.303,0.184 0.64,0.331 1.011,0.441 0.372,0.11 0.824,0.165 1.359,0.165 0.366,0.001 0.701,-0.03 1.006,-0.092 m -8.019,0 c 0.306,-0.062 0.576,-0.144 0.811,-0.245 0.235,-0.101 0.437,-0.212 0.606,-0.334 0.169,-0.121 0.301,-0.245 0.396,-0.369 0.185,-0.232 0.333,-0.482 0.446,-0.753 0.113,-0.27 0.169,-0.61 0.169,-1.021 0,-0.344 -0.039,-0.638 -0.116,-0.881 -0.077,-0.244 -0.166,-0.449 -0.267,-0.615 -0.143,-0.214 -0.347,-0.429 -0.615,-0.646 -0.268,-0.217 -0.79,-0.444 -1.568,-0.682 -0.392,-0.113 -0.739,-0.226 -1.042,-0.338 -0.303,-0.113 -0.56,-0.233 -0.771,-0.361 -0.211,-0.128 -0.37,-0.268 -0.477,-0.419 -0.107,-0.151 -0.16,-0.325 -0.16,-0.521 0,-0.404 0.127,-0.709 0.383,-0.917 0.155,-0.137 0.341,-0.232 0.561,-0.285 0.22,-0.054 0.479,-0.081 0.775,-0.081 0.439,0 0.811,0.094 1.113,0.281 0.303,0.187 0.541,0.477 0.713,0.869 l 1.434,-0.695 c -0.255,-0.624 -0.662,-1.088 -1.22,-1.394 -0.558,-0.306 -1.244,-0.459 -2.058,-0.459 -0.458,0 -0.898,0.057 -1.323,0.169 -0.425,0.112 -0.781,0.279 -1.069,0.499 -0.289,0.22 -0.506,0.475 -0.655,0.766 -0.13,0.231 -0.221,0.472 -0.271,0.721 -0.05,0.25 -0.076,0.479 -0.076,0.686 0,0.238 0.036,0.489 0.107,0.753 0.071,0.265 0.193,0.506 0.365,0.726 0.137,0.172 0.333,0.352 0.588,0.539 0.255,0.187 0.576,0.355 0.962,0.503 l 1.373,0.507 c 0.243,0.095 0.491,0.196 0.744,0.303 0.253,0.107 0.453,0.251 0.602,0.432 0.148,0.181 0.223,0.423 0.223,0.726 0,0.208 -0.048,0.385 -0.143,0.53 -0.095,0.145 -0.223,0.263 -0.383,0.352 -0.16,0.089 -0.348,0.153 -0.562,0.191 -0.213,0.039 -0.442,0.058 -0.686,0.058 -0.268,0 -0.505,-0.033 -0.713,-0.098 -0.208,-0.065 -0.395,-0.156 -0.561,-0.271 -0.167,-0.116 -0.312,-0.251 -0.437,-0.405 -0.125,-0.155 -0.235,-0.324 -0.33,-0.508 l -1.479,0.659 c 0.119,0.315 0.282,0.6 0.49,0.855 0.208,0.255 0.458,0.476 0.749,0.659 0.303,0.184 0.64,0.331 1.011,0.441 0.371,0.11 0.824,0.165 1.358,0.165 0.363,0.001 0.697,-0.03 1.003,-0.092 m -10.918,2.935 c 0.338,-0.095 0.668,-0.324 0.988,-0.686 0.321,-0.362 0.618,-0.9 0.891,-1.613 l 3.991,-10.218 h -1.782 l -2.45,6.495 -2.334,-6.495 h -1.826 l 3.234,8.944 -0.418,0.891 c -0.125,0.327 -0.298,0.615 -0.521,0.864 -0.223,0.25 -0.542,0.374 -0.958,0.374 -0.148,0 -0.288,-0.012 -0.419,-0.036 v 1.586 c 0.161,0.023 0.371,0.036 0.633,0.036 0.309,0.001 0.632,-0.047 0.971,-0.142 m -8.903,-3.136 v -5.533 c 0,-0.32 0.07,-0.673 0.21,-1.06 0.139,-0.386 0.381,-0.721 0.726,-1.006 0.345,-0.285 0.743,-0.428 1.194,-0.428 0.535,0 0.923,0.137 1.167,0.41 0.244,0.273 0.366,0.694 0.366,1.265 v 6.352 h 1.79 v -6.824 c 0,-0.552 -0.099,-1.051 -0.298,-1.497 -0.199,-0.445 -0.505,-0.781 -0.917,-1.007 -0.413,-0.225 -0.895,-0.338 -1.448,-0.338 -0.641,0 -1.186,0.122 -1.634,0.365 -0.449,0.244 -0.833,0.576 -1.154,0.998 v -4.393 h -1.79 v 12.696 h 1.788 z m -3.338,0 v -1.479 c -0.226,0.023 -0.452,0.036 -0.677,0.036 -0.279,0 -0.506,-0.036 -0.682,-0.107 -0.175,-0.071 -0.313,-0.178 -0.414,-0.32 -0.101,-0.143 -0.169,-0.321 -0.205,-0.535 -0.036,-0.214 -0.053,-0.463 -0.053,-0.749 v -4.82 h 1.933 v -1.407 h -1.933 v -3.314 h -1.782 v 3.314 h -1.212 v 1.407 h 1.212 v 4.838 c 0,0.481 0.04,0.919 0.12,1.314 0.08,0.395 0.226,0.73 0.437,1.007 0.21,0.276 0.5,0.489 0.868,0.641 0.368,0.152 0.84,0.228 1.417,0.228 0.344,0 0.668,-0.018 0.971,-0.054 z"
       id="path9"
       inkscape:connector-curvature="0"
       style="fill:#0095d8" /></g></svg>