<?xml version="1.0" encoding="utf-8"?>
<!-- Generator: Adobe Illustrator 23.0.0, SVG Export Plug-In . SVG Version: 6.00 Build 0)  -->
<svg version="1.1" id="Layer_1" xmlns="http://www.w3.org/2000/svg" xmlns:xlink="http://www.w3.org/1999/xlink" x="0px" y="0px"
	 viewBox="0 0 664.7 152.8" style="enable-background:new 0 0 664.7 152.8;" xml:space="preserve">
<style type="text/css">
	.st0{fill:#FFFFFF;}
	.st1{display:none;fill:#FFFFFF;}
	.st2{fill:#FFC914;}
</style>
<g>
	<g>
		<path class="st0" d="M131.3,62.9v22.3h-10.4V35.5h10.4v18.8h19.4V35.5h10.4v49.8h-10.4V62.9H131.3z"/>
		<path class="st0" d="M180.9,85.2h-10.4V35.5h10.4V85.2z"/>
		<path class="st0" d="M190.6,35.5h22c16.8,0,20.2,14.3,20.2,23.7c0,10.7-4.2,26.1-20.6,26.1h-21.5V35.5z M200.8,76.6h10.1
			c8.5,0,11.3-8.5,11.3-16.7c0-14.7-7-15.9-11.4-15.9h-10V76.6z"/>
		<path class="st0" d="M240.6,35.5h25.2c13.2,0,15.7,9.8,15.7,14.1c0,5.5-2.8,10.2-7.7,11.8c4.1,1.8,6.3,3.3,6.3,12.6
			c0,7.3,0,9.1,2.2,9.9v1.3h-11.5c-0.7-2.4-1.1-4.9-1.1-10c0-6.8-0.4-9.4-8.1-9.4h-10.7v19.5h-10.2V35.5z M263,57.4
			c5.4,0,8-1.9,8-6.8c0-2.6-1.2-6.5-7.3-6.5h-13v13.3H263z"/>
		<path class="st0" d="M310.9,34.2c6.6,0,23.9,2.8,23.9,26.2c0,23.4-17.3,26.2-23.9,26.2S287,83.7,287,60.4
			C287,37,304.3,34.2,310.9,34.2z M310.9,77.7c5.6,0,13.5-3.5,13.5-17.4S316.5,43,310.9,43c-5.6,0-13.5,3.5-13.5,17.4
			S305.3,77.7,310.9,77.7z"/>
		<path class="st0" d="M361.5,85.2h-10.4v-41h-15v-8.8h40.5v8.8h-15V85.2z"/>
		<path class="st0" d="M419.3,44.3h-26.4v10.5h24.3v8.8h-24.3v12.9h27.6v8.8h-37.8V35.5h36.6V44.3z M403.5,30.5h-7l6.5-10.1h10.7
			L403.5,30.5z"/>
		<path class="st0" d="M460.7,51.8c-0.8-3-2.4-8.6-11-8.6c-5,0-12.3,3.3-12.3,17.4c0,8.9,3.5,17,12.3,17c5.8,0,9.8-3.3,11-9.4h10.4
			c-2.1,10.8-9.1,18.4-21.6,18.4c-13.2,0-22.7-8.9-22.7-26.1c0-17.4,10-26.3,22.9-26.3c14.9,0,20.9,10.3,21.5,17.6H460.7z"/>
		<path class="st0" d="M509.3,35.5h9.7v49.8h-10.4l-20.3-35.5h-0.1v35.5h-9.7V35.5h10.9l19.7,34.6h0.1V35.5z"/>
		<path class="st0" d="M538.6,85.2h-10.4V35.5h10.4V85.2z"/>
		<path class="st0" d="M580,51.8c-0.8-3-2.4-8.6-11-8.6c-5,0-12.3,3.3-12.3,17.4c0,8.9,3.5,17,12.3,17c5.8,0,9.8-3.3,11-9.4h10.4
			c-2.1,10.8-9.1,18.4-21.6,18.4c-13.2,0-22.7-8.9-22.7-26.1c0-17.4,10-26.3,22.9-26.3c14.9,0,20.9,10.3,21.5,17.6H580z"/>
		<path class="st0" d="M602.6,85.2h-10.9l17.7-49.8h12l17.5,49.8h-11.3L624.4,75h-18.4L602.6,85.2z M608.8,66.4h12.7l-6.2-19.7h-0.1
			L608.8,66.4z"/>
	</g>
	<g>
		<path class="st0" d="M157.5,108.3h-26.4v10.5h24.3v8.8h-24.3v12.9h27.6v8.8h-37.8V99.5h36.6V108.3z"/>
		<path class="st0" d="M207.5,152.8l-5.9-5.6c-4.7,2.8-9.8,3.3-12.7,3.3c-6.6,0-23.9-2.8-23.9-26.2s17.3-26.2,23.9-26.2
			s23.9,2.8,23.9,26.2c0,8.2-2.1,13.9-5.2,17.7l5.4,5.1L207.5,152.8z M194.8,130.1l5.3,4.9c1.4-2.6,2.3-6,2.3-10.7
			c0-13.9-7.9-17.4-13.5-17.4s-13.5,3.5-13.5,17.4c0,13.9,7.9,17.4,13.5,17.4c1.7,0,3.7-0.3,5.6-1.3l-5-4.7L194.8,130.1z"/>
		<path class="st0" d="M260.2,131.8c0,13.1-7.9,18.7-20.4,18.7c-4.6,0-11.4-1.1-15.8-6c-2.7-3-3.7-7.1-3.9-12.1v-33h10.6v32.3
			c0,6.9,4,10,8.9,10c7.1,0,10-3.5,10-9.5V99.5h10.6V131.8z"/>
		<path class="st0" d="M280,149.2h-10.4V99.5H280V149.2z"/>
		<path class="st0" d="M300.1,149.2h-10.4V99.5h22.7c9.6,0,15.5,6.2,15.5,15.9c0,4.5-2.5,15.9-15.9,15.9h-11.9V149.2z M309.7,122.7
			c7.8,0,7.8-5.5,7.8-7.8c0-4.9-2.7-6.9-9.1-6.9h-8.2v14.6H309.7z"/>
		<path class="st0" d="M336,149.2h-10.9l17.7-49.8h12l17.5,49.8H361l-3.2-10.3h-18.4L336,149.2z M342.3,130.4h12.7l-6.2-19.7h-0.1
			L342.3,130.4z"/>
		<path class="st0" d="M426.7,149.2H417v-41.6h-0.1l-9.3,41.6h-10.2l-9.1-41.6h-0.1v41.6h-9.7V99.5h15.2l9,39.2h0.1l8.9-39.2h15
			V149.2z"/>
		<path class="st0" d="M473.3,108.3h-26.4v10.5h24.3v8.8h-24.3v12.9h27.6v8.8h-37.8V99.5h36.6V108.3z"/>
		<path class="st0" d="M513.3,99.5h9.7v49.8h-10.4l-20.3-35.5h-0.1v35.5h-9.7V99.5h10.9l19.7,34.6h0.1V99.5z"/>
		<path class="st0" d="M554.1,149.2h-10.4v-41h-15v-8.8h40.5v8.8h-15V149.2z"/>
		<path class="st0" d="M594.2,98.2c6.6,0,23.9,2.8,23.9,26.2s-17.3,26.2-23.9,26.2s-23.9-2.8-23.9-26.2S587.6,98.2,594.2,98.2z
			 M594.2,141.7c5.6,0,13.5-3.5,13.5-17.4c0-13.9-7.9-17.4-13.5-17.4s-13.5,3.5-13.5,17.4C580.7,138.3,588.6,141.7,594.2,141.7z"/>
		<path class="st0" d="M633.8,133.9c0.1,2.8,1.5,8,10.5,8c4.9,0,10.4-1.2,10.4-6.4c0-3.9-3.7-4.9-9-6.2l-5.3-1.2
			c-8-1.9-15.8-3.7-15.8-14.6c0-5.5,3-15.3,19.1-15.3c15.2,0,19.3,10,19.4,16.1h-10c-0.3-2.2-1.1-7.5-10.2-7.5c-3.9,0-8.7,1.5-8.7,6
			c0,3.9,3.2,4.7,5.3,5.2l12.1,3c6.8,1.7,13,4.4,13,13.4c0,15-15.2,16.3-19.6,16.3c-18.2,0-21.3-10.5-21.3-16.6H633.8z"/>
	</g>
	<rect x="528.2" y="88.2" class="st1" width="9.2" height="9.2"/>
	<rect x="528.2" y="97.4" class="st1" width="9.2" height="9.2"/>
</g>
<g>
	<polygon class="st2" points="99.6,0 64,0 35.6,0 0,0 0,28.5 35.6,28.5 35.6,149.4 64,149.4 64,28.5 99.6,28.5 	"/>
	<polygon class="st0" points="71,35.4 71,78 28.5,78 28.5,35.6 0,35.6 0,78 0,106.7 0,149.4 28.5,149.4 28.5,106.7 71,106.7 
		71,149.4 99.6,149.4 99.6,106.7 99.6,78 99.6,35.4 	"/>
</g>
</svg>
