<?xml version="1.0" encoding="utf-8"?>
<!-- Generator: Adobe Illustrator 23.0.0, SVG Export Plug-In . SVG Version: 6.00 Build 0)  -->
<svg version="1.1" id="Layer_1" xmlns="http://www.w3.org/2000/svg" xmlns:xlink="http://www.w3.org/1999/xlink" x="0px" y="0px"
	 viewBox="0 0 455.6 104.7" style="enable-background:new 0 0 455.6 104.7;" xml:space="preserve">
<style type="text/css">
	.st0{fill:#0A1B2B;}
	.st1{display:none;fill:#0A1B2B;}
	.st2{fill:#FFC914;}
</style>
<g>
	<g>
		<g>
			<path class="st0" d="M90,43.1v15.3h-7.1V24.3H90v12.9h13.3V24.3h7.1v34.1h-7.1V43.1H90z"/>
			<path class="st0" d="M124,58.4h-7.1V24.3h7.1V58.4z"/>
			<path class="st0" d="M130.6,24.3h15.1c11.5,0,13.9,9.8,13.9,16.2c0,7.3-2.9,17.9-14.2,17.9h-14.8V24.3z M137.6,52.5h6.9
				c5.8,0,7.7-5.8,7.7-11.4c0-10.1-4.8-10.9-7.8-10.9h-6.8V52.5z"/>
			<path class="st0" d="M164.9,24.3h17.2c9.1,0,10.7,6.7,10.7,9.6c0,3.8-1.9,7-5.3,8.1c2.8,1.2,4.3,2.3,4.3,8.6c0,5,0,6.2,1.5,6.8
				v0.9h-7.9c-0.5-1.6-0.8-3.4-0.8-6.9c0-4.7-0.3-6.5-5.6-6.5h-7.4v13.3h-7V24.3z M180.2,39.3c3.7,0,5.5-1.3,5.5-4.7
				c0-1.8-0.8-4.5-5-4.5h-8.9v9.1H180.2z"/>
			<path class="st0" d="M213.1,23.4c4.5,0,16.4,1.9,16.4,18c0,16-11.9,18-16.4,18c-4.5,0-16.4-1.9-16.4-18
				C196.7,25.4,208.6,23.4,213.1,23.4z M213.1,53.3c3.8,0,9.3-2.4,9.3-11.9s-5.4-11.9-9.3-11.9c-3.8,0-9.3,2.4-9.3,11.9
				S209.2,53.3,213.1,53.3z"/>
			<path class="st0" d="M247.8,58.4h-7.1V30.3h-10.3v-6h27.7v6h-10.3V58.4z"/>
			<path class="st0" d="M287.4,30.3h-18.1v7.2h16.6v6h-16.6v8.8h18.9v6h-25.9V24.3h25.1V30.3z M276.5,20.9h-4.8l4.5-6.9h7.3
				L276.5,20.9z"/>
			<path class="st0" d="M315.7,35.5c-0.6-2-1.7-5.9-7.6-5.9c-3.4,0-8.5,2.3-8.5,11.9c0,6.1,2.4,11.6,8.5,11.6c3.9,0,6.7-2.2,7.6-6.4
				h7.1c-1.4,7.4-6.3,12.6-14.8,12.6c-9.1,0-15.6-6.1-15.6-17.9c0-11.9,6.9-18,15.7-18c10.2,0,14.3,7,14.7,12.1H315.7z"/>
			<path class="st0" d="M349.1,24.3h6.6v34.1h-7.1l-13.9-24.3h-0.1v24.3h-6.6V24.3h7.5L349,48.1h0.1V24.3z"/>
			<path class="st0" d="M369.1,58.4H362V24.3h7.1V58.4z"/>
			<path class="st0" d="M397.5,35.5c-0.6-2-1.7-5.9-7.6-5.9c-3.4,0-8.5,2.3-8.5,11.9c0,6.1,2.4,11.6,8.5,11.6c3.9,0,6.7-2.2,7.6-6.4
				h7.1c-1.4,7.4-6.3,12.6-14.8,12.6c-9.1,0-15.6-6.1-15.6-17.9c0-11.9,6.9-18,15.7-18c10.2,0,14.3,7,14.7,12.1H397.5z"/>
			<path class="st0" d="M413,58.4h-7.5l12.2-34.1h8.2l12,34.1h-7.7l-2.2-7h-12.6L413,58.4z M417.2,45.5h8.7L421.7,32h-0.1
				L417.2,45.5z"/>
		</g>
		<g>
			<path class="st0" d="M107.9,74.2H89.9v7.2h16.6v6H89.9v8.8h18.9v6H82.9V68.2h25.1V74.2z"/>
			<path class="st0" d="M142.2,104.7l-4-3.8c-3.2,1.9-6.7,2.3-8.7,2.3c-4.5,0-16.4-1.9-16.4-17.9s11.9-18,16.4-18
				c4.5,0,16.4,1.9,16.4,18c0,5.6-1.5,9.5-3.6,12.2l3.7,3.5L142.2,104.7z M133.5,89.2l3.6,3.4c1-1.8,1.6-4.1,1.6-7.3
				c0-9.5-5.4-11.9-9.3-11.9c-3.8,0-9.3,2.4-9.3,11.9c0,9.5,5.4,11.9,9.3,11.9c1.2,0,2.6-0.2,3.8-0.9l-3.4-3.2L133.5,89.2z"/>
			<path class="st0" d="M178.3,90.3c0,9-5.4,12.8-14,12.8c-3.1,0-7.8-0.8-10.8-4.1c-1.9-2.1-2.6-4.8-2.7-8.3V68.2h7.3v22.1
				c0,4.7,2.8,6.8,6.1,6.8c4.9,0,6.9-2.4,6.9-6.5V68.2h7.3V90.3z"/>
			<path class="st0" d="M191.9,102.3h-7.1V68.2h7.1V102.3z"/>
			<path class="st0" d="M205.6,102.3h-7.1V68.2h15.6c6.6,0,10.6,4.2,10.6,10.9c0,3.1-1.7,10.9-10.9,10.9h-8.2V102.3z M212.2,84.1
				c5.3,0,5.3-3.8,5.3-5.3c0-3.3-1.9-4.7-6.3-4.7h-5.7v10H212.2z"/>
			<path class="st0" d="M230.3,102.3h-7.5l12.2-34.1h8.2l12,34.1h-7.7l-2.2-7h-12.6L230.3,102.3z M234.6,89.3h8.7L239,75.9h-0.1
				L234.6,89.3z"/>
			<path class="st0" d="M292.4,102.3h-6.6V73.8h-0.1l-6.4,28.5h-7l-6.2-28.5H266v28.5h-6.6V68.2h10.4L276,95h0.1l6.1-26.9h10.3
				V102.3z"/>
			<path class="st0" d="M324.4,74.2h-18.1v7.2h16.6v6h-16.6v8.8h18.9v6h-25.9V68.2h25.1V74.2z"/>
			<path class="st0" d="M351.8,68.2h6.6v34.1h-7.1L337.4,78h-0.1v24.3h-6.6V68.2h7.5l13.5,23.7h0.1V68.2z"/>
			<path class="st0" d="M379.7,102.3h-7.1V74.2h-10.3v-6H390v6h-10.3V102.3z"/>
			<path class="st0" d="M407.2,67.3c4.5,0,16.4,1.9,16.4,18s-11.9,17.9-16.4,17.9c-4.5,0-16.4-1.9-16.4-17.9S402.7,67.3,407.2,67.3z
				 M407.2,97.1c3.8,0,9.3-2.4,9.3-11.9c0-9.5-5.4-11.9-9.3-11.9c-3.8,0-9.3,2.4-9.3,11.9C398,94.8,403.4,97.1,407.2,97.1z"/>
			<path class="st0" d="M434.4,91.8c0,1.9,1,5.5,7.2,5.5c3.4,0,7.1-0.8,7.1-4.4c0-2.7-2.6-3.4-6.2-4.2l-3.7-0.9
				c-5.5-1.3-10.8-2.5-10.8-10c0-3.8,2-10.5,13.1-10.5c10.4,0,13.2,6.8,13.3,11h-6.8c-0.2-1.5-0.8-5.1-7-5.1c-2.7,0-5.9,1-5.9,4.1
				c0,2.7,2.2,3.2,3.6,3.6l8.3,2c4.7,1.1,8.9,3,8.9,9.2c0,10.3-10.4,11.2-13.4,11.2c-12.4,0-14.6-7.2-14.6-11.4H434.4z"/>
		</g>
		<rect x="362" y="60.4" class="st1" width="6.3" height="6.3"/>
		<rect x="362" y="66.7" class="st1" width="6.3" height="6.3"/>
	</g>
	<g>
		<rect x="24.4" transform="matrix(-1 -1.224647e-16 1.224647e-16 -1 68.2506 102.3759)" class="st2" width="19.5" height="102.4"/>
		
			<rect x="24.4" y="-24.4" transform="matrix(-1.836970e-16 1 -1 -1.836970e-16 43.8754 -24.3752)" class="st2" width="19.5" height="68.3"/>
		<rect y="24.4" class="st0" width="19.5" height="78"/>
		<rect x="48.6" y="24.2" class="st0" width="19.6" height="78.1"/>
		
			<rect x="24.3" y="29.2" transform="matrix(6.123234e-17 -1 1 6.123234e-17 -29.1725 97.423)" class="st0" width="19.7" height="68.3"/>
	</g>
</g>
</svg>
